<svg width="48" height="53" viewBox="0 0 48 53" fill="none" xmlns="http://www.w3.org/2000/svg">
<path d="M41.68 10.1804C40.6585 9.05197 39.4456 8.15681 38.1107 7.54606C36.7758 6.93532 35.345 6.62097 33.9 6.62097C32.455 6.62097 31.0242 6.93532 29.6893 7.54606C28.3544 8.15681 27.1415 9.05197 26.12 10.1804L24 12.5213L21.88 10.1804C19.8166 7.9021 17.0181 6.62215 14.1 6.62215C11.1819 6.62215 8.38338 7.9021 6.31999 10.1804C4.25661 12.4587 3.09741 15.5488 3.09741 18.7708C3.09741 21.9929 4.25661 25.0829 6.31999 27.3613L24 46.8829L41.68 27.3613C42.702 26.2333 43.5127 24.8941 44.0658 23.4202C44.6189 21.9462 44.9036 20.3663 44.9036 18.7708C44.9036 17.1753 44.6189 15.5955 44.0658 14.1215C43.5127 12.6475 42.702 11.3083 41.68 10.1804Z" stroke="#1E1E1E" stroke-width="4" stroke-linecap="round" stroke-linejoin="round"/>
</svg>
