<svg width="54" height="53" viewBox="0 0 54 53" fill="none" xmlns="http://www.w3.org/2000/svg">
<path d="M23.1525 8.52416L4.09499 39.75C3.70206 40.4178 3.49416 41.175 3.49196 41.9462C3.48976 42.7174 3.69334 43.4757 4.08245 44.1457C4.47155 44.8157 5.03262 45.3741 5.70983 45.7652C6.38704 46.1563 7.15678 46.3665 7.94249 46.375H46.0575C46.8432 46.3665 47.6129 46.1563 48.2901 45.7652C48.9673 45.3741 49.5284 44.8157 49.9175 44.1457C50.3066 43.4757 50.5102 42.7174 50.508 41.9462C50.5058 41.175 50.2979 40.4178 49.905 39.75L30.8475 8.52416C30.4464 7.87515 29.8816 7.33855 29.2077 6.96615C28.5337 6.59374 27.7734 6.3981 27 6.3981C26.2266 6.3981 25.4662 6.59374 24.7923 6.96615C24.1184 7.33855 23.5536 7.87515 23.1525 8.52416Z" stroke="#1E1E1E" stroke-width="4" stroke-linecap="round" stroke-linejoin="round"/>
</svg>
